<?xml version="1.0" encoding="utf-8"?>
<!-- Generator: Adobe Illustrator 23.0.0, SVG Export Plug-In . SVG Version: 6.00 Build 0)  -->
<svg version="1.1" id="Capa_1" xmlns="http://www.w3.org/2000/svg" xmlns:xlink="http://www.w3.org/1999/xlink" x="0px" y="0px"
	 viewBox="0 0 344.77 506.25" style="enable-background:new 0 0 344.77 506.25;" xml:space="preserve">
<style type="text/css">
	.st0{fill:#7BABF7;}
	.st1{fill:#FFFFFF;}
	.st2{fill:#BBDEFC;}
	.st3{fill:#FAFAFA;}
	.st4{fill:#4385F5;}
	.st5{fill:#BED4F9;}
	.st6{fill:#90CAF8;}
</style>
<g>
	<path class="st0" d="M335.8,256.76c0,0-1.58-27.96-3.69-46.95c-2.11-18.99-3.16-40.09-3.16-40.09l-1.05-20.57
		c0,0-1.05-13.71-13.19-9.49c-12.13,4.22-25.32,16.35-23.74,43.78c1.58,27.43-2.64,87.56-35.87,73.32s-77.01-44.31-116.04-53.27
		c-36.73-8.44-71.12-14.74-88.68-16.42c-4.04-3.63-9.38-2.84-15.23-2.84c-12.6,0-22.81,10.21-22.81,22.81
		c0,12.6,10.21,22.81,22.81,22.81c4.46,0,8.62,0.72,12.13-1.5v14.29c-3.57-2.07-7.71-1.25-12.13-1.25
		c-13.4,0-24.26,10.86-24.26,24.26c0,13.4,10.86,24.26,24.26,24.26c4.42,0,8.56,0.81,12.13-1.25v11.88
		c-3.57-2.07-7.71-2.25-12.13-2.25c-13.4,0-24.26,10.86-24.26,24.26c0,13.4,10.86,24.26,24.26,24.26c4.42,0,8.56-0.19,12.13-2.25
		v14.24c-1.97-0.59-4.07-0.91-6.23-0.91c-12,0-21.72,9.73-21.72,21.72c0,12,9.73,21.72,21.72,21.72c2.17,0,4.26-0.32,6.23-0.91v0.33
		c0,0,154.55,56.44,251.08,105.49h46.42V315.31C344.77,315.31,338.44,281.55,335.8,256.76z"/>
	<path class="st1" d="M289.38,455.09c0,19.23-15.59,34.81-34.81,34.81H75.76c0,0-28.48,1.58-28.48-31.12s0-413.54,0-413.54
		s6.33-30.07,34.29-31.12s180.4,0,180.4,0s27.43,8.44,27.43,32.18V455.09z"/>
	<rect x="62.04" y="49.46" class="st2" width="216.79" height="384.53"/>
	<path class="st3" d="M272.82,248.3l2.81-17.18c0,0,8.31-93.37-105.64-88.56S66.05,231.52,66.05,231.52l3.04,16.78h-6.95v78.2
		c0,0,5.52,5.61,12.73,5.61c0,0,11.25,32.75,35.44,55.74v46.67h116.31v-46.36c14.09-11.51,27.61-29.02,36.99-55.65
		c0,0,11.22,0.4,15.23-6.01v-78.2H272.82z"/>
	<path class="st4" d="M276.79,188.95c-6.82-31.3-28.89-52.56-28.89-52.56s-20.86-18.86-40.12-18.06s-34.1-7.22-38.92-12.04
		c0,0-12.04,12.84-37.31,11.64c-25.28-1.2-51.76,30.49-51.76,30.49s-17.65,22.07-17.65,42.93s0,40.52,0,40.52s0.8,10.03,3.21,14.44
		c0,0,0.8,11.23,3.61,12.44c0,0,5.22,40.92,21.26,46.94c0,0,24.47,11.23,45.34,0c0,0,11-3.68,18.06-21.26
		c2.5-6.24,4.81-16.85,4.81-16.85s1.25-3.53,3.7-5.56c3.26-2.68,9.25-4.23,13.98,0.13c1.23,1.13,2.64,3.82,3.95,8.93l3.65,10.94
		c0,0,7.96,18.64,16.85,24.07c5.1,3.12,11.52,4.37,23.47,4.39c7.65,0.01,12.08-0.59,19.86-2.78c0,0,16.22-6.25,20.46-26.88
		c0,0,3.21-8.02,3.21-21.26c0,0,1.87-5.26,3.61-10.03C271.17,249.53,283.61,220.24,276.79,188.95z M145.71,293.81
		c-8.7,14.44-31.45,13.15-31.45,13.15s-21.07,0.18-31.65-12.96c0,0-7.52-6.63-7.91-33.92c0,0,6.13-16.08,39.56-16.02
		c33.23-0.06,39.56,16.02,39.56,16.02C153.82,283.23,145.71,293.81,145.71,293.81z M256.48,293.81
		c-8.7,14.44-31.45,13.15-31.45,13.15s-21.07,0.18-31.65-12.96c0,0-7.52-6.63-7.91-33.92c0,0,6.13-16.08,39.56-16.02
		c33.23-0.06,39.56,16.02,39.56,16.02C264.59,283.23,256.48,293.81,256.48,293.81z M260.24,240.87
		c-24.33-6.53-69.56-3.63-74.57,1.91c-3.92,4.33-13.34,4.31-17.24,4.09c-3.91,0.22-13.32,0.24-17.24-4.09
		c-5.01-5.54-54.53-8.23-73.62-3c-8.78,2.41-9.21,2.1-8.18-0.79c0,0,17.97-52.12,28.52-61.88c10.55-9.76,11.08-12.92,29.27-9.49
		c15.31,2.89,35.29,5.77,41.24,6.61c5.95-0.84,25.93-3.73,41.24-6.61c18.2-3.43,18.73-0.26,29.27,9.49
		c10.55,9.76,28.61,61.58,28.61,61.58C268.59,241.58,269.67,243.4,260.24,240.87z"/>
	<path class="st5" d="M202.17,274.51c0.69-7.54,6.28-15.48,15.32-15.7c9.24-0.22,13.84,7.06,14.51,15.7c0.29,3.75,6.19,3.79,5.89,0
		c-0.92-11.79-7.73-21.81-20.4-21.58c-12.14,0.22-20.15,10-21.21,21.58C195.93,278.28,201.82,278.26,202.17,274.51L202.17,274.51z"
		/>
	<path class="st5" d="M103.97,274.51c0.69-7.54,6.28-15.48,15.32-15.7c9.24-0.22,13.84,7.06,14.51,15.7c0.29,3.75,6.19,3.79,5.89,0
		c-0.92-11.79-7.73-21.81-20.4-21.58c-12.14,0.22-20.15,10-21.21,21.58C97.74,278.28,103.63,278.26,103.97,274.51L103.97,274.51z"/>
	<path class="st5" d="M106.75,228.8c2.96-1.57,6.11-2.5,9.29-3.18c3.18-0.66,6.42-1,9.68-1.06c3.25-0.06,6.53,0.24,9.74,0.85
		c3.21,0.65,6.39,1.7,9.27,3.39c-3.34,0.34-6.47,0.41-9.6,0.53c-3.13,0.13-6.23,0.18-9.34,0.23c-3.11,0.05-6.23,0.04-9.39-0.04
		C113.23,229.43,110.05,229.27,106.75,228.8z"/>
	<path class="st5" d="M195.37,228.8c2.96-1.57,6.11-2.5,9.29-3.18c3.18-0.66,6.42-1,9.68-1.06c3.25-0.06,6.53,0.24,9.74,0.85
		c3.21,0.65,6.39,1.7,9.27,3.39c-3.34,0.34-6.47,0.41-9.6,0.53c-3.13,0.13-6.23,0.18-9.34,0.23c-3.11,0.05-6.23,0.04-9.39-0.04
		C201.85,229.43,198.67,229.27,195.37,228.8z"/>
	<g>
		<circle class="st6" cx="104.77" cy="395.35" r="29.27"/>
		<path class="st3" d="M121.65,395.16c-0.21,0-0.42,0.05-0.62,0.13c-1.96-8.28-8.49-14.37-16.26-14.37c-7.78,0-14.31,6.1-16.27,14.4
			c-0.21-0.09-0.44-0.15-0.67-0.15c-1.6,0-2.9,2.37-2.9,5.3c0,2.93,1.3,5.3,2.9,5.3c0.23,0,0.45-0.06,0.67-0.15
			c1.13,4.78,3.77,8.82,7.3,11.39v6.21c2.83,0.91,5.84,1.4,8.97,1.4c2.84,0,5.58-0.41,8.18-1.17v-5.9c3.92-2.52,6.87-6.8,8.09-11.91
			c0.2,0.08,0.41,0.13,0.62,0.13c1.6,0,2.9-2.37,2.9-5.3C124.55,397.54,123.25,395.16,121.65,395.16z"/>
		<path class="st4" d="M110.94,376.28c0.81-1.08,1.28-2.38,1.28-3.78c0-3.72-3.34-6.73-7.45-6.73s-7.45,3.01-7.45,6.73
			c0,1.4,0.47,2.7,1.28,3.78c-13.53,3.87-10.39,17.16-10.39,17.16c11.09-0.48,15.11-7.98,16.56-13.2
			c1.46,5.22,5.47,12.71,16.56,13.2C121.33,393.44,124.47,380.15,110.94,376.28z"/>
		<path class="st5" d="M108.97,398.83c0.12-1.31,1.09-2.68,2.66-2.72c1.6-0.04,2.4,1.22,2.52,2.72c0.05,0.65,1.07,0.66,1.02,0
			c-0.16-2.04-1.34-3.78-3.54-3.74c-2.1,0.04-3.49,1.73-3.68,3.74C107.89,399.48,108.91,399.48,108.97,398.83L108.97,398.83z"/>
		<path class="st5" d="M95.63,398.83c0.12-1.31,1.09-2.68,2.66-2.72c1.6-0.04,2.4,1.22,2.52,2.72c0.05,0.65,1.07,0.66,1.02,0
			c-0.16-2.04-1.34-3.78-3.54-3.74c-2.1,0.04-3.49,1.73-3.68,3.74C94.55,399.48,95.57,399.48,95.63,398.83L95.63,398.83z"/>
	</g>
	<polygon class="st5" points="179.14,275.22 183.89,329.02 162.26,332.71 189.69,337.46 	"/>
	<path class="st5" d="M226.62,388.16c0,0-30.59,23.15-64.35,17.88c0,0,35.87,9.62,64.35-11.28L226.62,388.16z"/>
</g>
</svg>
