<?xml version="1.0" encoding="utf-8"?>
<!-- Generator: Adobe Illustrator 23.0.0, SVG Export Plug-In . SVG Version: 6.00 Build 0)  -->
<svg version="1.1"
	 id="Layer_1" xmlns:cc="http://creativecommons.org/ns#" xmlns:dc="http://purl.org/dc/elements/1.1/" xmlns:rdf="http://www.w3.org/1999/02/22-rdf-syntax-ns#" xmlns:svg="http://www.w3.org/2000/svg"
	 xmlns="http://www.w3.org/2000/svg" xmlns:xlink="http://www.w3.org/1999/xlink" x="0px" y="0px" viewBox="0 0 916.4 192"
	 style="enable-background:new 0 0 916.4 192;" xml:space="preserve">
<style type="text/css">
	.st0{opacity:0.5;enable-background:new    ;}
	.st1{fill:#4285F4;}
	.st2{opacity:0.2;fill:#1A237E;enable-background:new    ;}
	.st3{opacity:0.2;fill:#FFFFFF;enable-background:new    ;}
	.st4{fill:#FFFFFF;}
	.st5{fill:#1A237E;}
	.st6{fill:#E1E1E1;}
	.st7{fill:url(#path87_1_);}
	.st8{fill:#F5F5F5;}
</style>
<path id="path20" class="st0" d="M688.2,144V52.4h28c14.1,0,25.3,4.2,33.8,12.7c8.4,8.5,12.7,19.5,12.7,33.1s-4.2,24.6-12.7,33.1
	c-8.4,8.5-19.7,12.7-33.8,12.7L688.2,144L688.2,144z M700,132.7h16.3c10.6,0,19-3,25.2-9.1s9.3-14.5,9.3-25.5
	c0-10.8-3.1-19.3-9.3-25.4c-6.2-6.1-14.6-9.2-25.2-9.2H700V132.7z M829.7,144h-11.3v-8.7h-0.5c-1.8,3-4.5,5.5-8.2,7.6
	s-7.6,3.1-11.6,3.1c-7.9,0-13.8-2.4-17.9-7.2c-4.1-4.8-6.1-11.2-6.1-19.2V81.2h11.8v36.5c0,11.7,5.2,17.5,15.5,17.5
	c4.9,0,8.8-2,11.9-5.9c3.1-3.9,4.6-8.4,4.6-13.6V81.1h11.8V144z M848.9,88.8c6.1-6.4,13.8-9.5,23.2-9.5s17.1,3.2,23.2,9.5
	c6.1,6.4,9.1,14.3,9.1,23.9c0,9.6-3,17.5-9.1,23.9s-13.8,9.5-23.2,9.5s-17.1-3.2-23.2-9.5c-6.1-6.4-9.1-14.3-9.1-23.9
	C839.8,103.1,842.8,95.1,848.9,88.8z M857.6,129.1c4.1,4.1,8.9,6.2,14.4,6.2s10.3-2.1,14.4-6.2c4.1-4.1,6.1-9.6,6.1-16.4
	c0-6.8-2-12.3-6.1-16.4c-4.1-4.1-8.9-6.2-14.4-6.2s-10.3,2.1-14.4,6.2c-4.1,4.1-6.1,9.6-6.1,16.4C851.5,119.5,853.6,125,857.6,129.1
	z"/>
<path id="XMLID_71_" class="st0" d="M240.7,93.6c0-28.9,24.3-52.5,53.3-52.5c16,0,27.4,6.3,36,14.5l-10.1,10.1
	c-6.1-5.8-14.5-10.2-25.9-10.2c-21.1,0-37.6,17-37.6,38.1s16.5,38.1,37.6,38.1c13.7,0,21.5-5.5,26.5-10.5c4.1-4.1,6.8-10,7.8-18H294
	V88.9h48.3c0.5,2.6,0.8,5.6,0.8,9c0,10.8-2.9,24.1-12.4,33.5c-9.2,9.6-21,14.7-36.6,14.7C265,146,240.7,122.5,240.7,93.6z"/>
<path id="XMLID_68_" class="st0" d="M382,78.5c-18.7,0-33.9,14.2-33.9,33.8c0,19.5,15.2,33.8,33.9,33.8c18.7,0,33.9-14.3,33.9-33.8
	C415.9,92.7,400.7,78.5,382,78.5L382,78.5z M382,132.7c-10.2,0-19.1-8.4-19.1-20.5c0-12.2,8.8-20.5,19.1-20.5
	c10.2,0,19.1,8.3,19.1,20.5C401.1,124.3,392.2,132.7,382,132.7L382,132.7z"/>
<path id="XMLID_65_" class="st0" d="M456,78.5c-18.7,0-33.9,14.2-33.9,33.8c0,19.5,15.2,33.8,33.9,33.8s33.9-14.3,33.9-33.8
	C489.9,92.7,474.7,78.5,456,78.5z M456,132.7c-10.2,0-19.1-8.4-19.1-20.5c0-12.2,8.8-20.5,19.1-20.5s19.1,8.3,19.1,20.5
	C475.1,124.3,466.2,132.7,456,132.7z"/>
<path id="XMLID_62_" class="st0" d="M546.8,80.5V86h-0.5c-3.3-4-9.7-7.6-17.8-7.6c-16.9,0-32.4,14.8-32.4,33.9
	c0,18.9,15.5,33.7,32.4,33.7c8.1,0,14.5-3.6,17.8-7.7h0.5v4.9c0,12.9-6.9,19.8-18,19.8c-9.1,0-14.7-6.5-17-12l-12.9,5.4
	c3.7,9,13.6,20,30,20c17.4,0,32.1-10.2,32.1-35.2V80.5L546.8,80.5L546.8,80.5z M529.8,132.7c-10.2,0-18.8-8.6-18.8-20.4
	c0-11.9,8.6-20.6,18.8-20.6c10.1,0,18,8.7,18,20.6C547.9,124.2,539.9,132.7,529.8,132.7z"/>
<path id="XMLID_57_" class="st0" d="M571.2,44.7H586V144h-14.8V44.7z"/>
<path id="XMLID_53_" class="st0" d="M626.7,132.7c-7.6,0-12.9-3.5-16.4-10.2l45.2-18.7L654,100c-2.8-7.6-11.4-21.5-28.9-21.5
	c-17.4,0-31.9,13.7-31.9,33.8c0,18.9,14.3,33.8,33.5,33.8c15.5,0,24.4-9.5,28.2-15l-11.5-7.7C639.5,129,634.3,132.7,626.7,132.7
	L626.7,132.7z M625.6,91.5c5.9,0,10.9,2.9,12.5,7.2l-30.2,12.5C607.5,98.2,618,91.5,625.6,91.5z"/>
<g id="g38">
	<g id="g48">
		<path id="XMLID_50_" class="st1" d="M172,33c0-6.6-5.4-12-12-12H91c-50.2,0-89.7,45.7-79.3,97.7c6.4,32,31.9,56.9,64,62.8
			c50,9.2,93.8-27.5,96.2-75.5h0.1V33z"/>
		<path id="path51" class="st2" d="M75.7,180.5c-32.1-5.9-57.6-30.8-64-62.8c-1.1-5.5-1.6-10.9-1.7-16.2c0,5.6,0.5,11.4,1.7,17.3
			c6.4,32,31.9,56.9,64,62.8c50,9.2,93.8-27.4,96.2-75.4h0.1v-1h-0.1C169.4,153,125.7,189.6,75.7,180.5L75.7,180.5z"/>
		<path id="path53" class="st3" d="M160,21H91c-44.9,0-81.2,36.5-81,81.4C10.3,58,46.4,22,91,22h69c6.6,0,12,5.4,12,12v-1
			C172,26.4,166.6,21,160,21z"/>
		<path id="path55" class="st4" d="M64.9,71h44.2c4.9,0,8.9,4,8.9,8.9v-1c0-4.9-4-8.9-8.9-8.9H64.9C60,70,56,74,56,78.9v1
			C56,75,60,71,64.9,71z M118,90v1l18-18v-1L118,90z"/>
		<path id="path57" class="st2" d="M109.1,125H64.9c-4.9,0-8.9-4-8.9-8.9v1c0,4.9,4,8.9,8.9,8.9h44.2c4.9,0,8.9-4,8.9-8.9v-1
			C118,121,114,125,109.1,125z M118,106l18,18v-1l-18-18V106z"/>
		<path class="st5" d="M136,73v50l-18-18v11.1c0,4.9-4,8.9-8.9,8.9H64.9c-2.1,0-4-0.7-5.6-2l56.2,56.2h0c30.4-9.6,53-36.7,56.1-69.4
			L136,73z"/>
		<path id="path69" class="st6" d="M136,73l-18,18V79.9c0-4.9-4-8.9-8.9-8.9H64.9C60,71,56,75,56,79.9V98h80L136,73L136,73z"/>
	</g>
	<path id="XMLID_12_" class="st1" d="M172,32c0-6.6-5.4-12-12-12H91c-50.2,0-89.7,45.7-79.3,97.7c6.4,32,31.9,56.9,64,62.8
		c50,9.2,93.8-27.5,96.2-75.5h0.1V32z"/>
	<path id="path74" class="st2" d="M75.7,179.5c-32.1-5.9-57.6-30.8-64-62.8c-1.1-5.5-1.6-10.9-1.7-16.2c0,5.6,0.5,11.4,1.7,17.3
		c6.4,32,31.9,56.9,64,62.8c50,9.2,93.8-27.4,96.2-75.4h0.1v-1h-0.1C169.4,152,125.7,188.6,75.7,179.5L75.7,179.5z"/>
	<path id="path76" class="st3" d="M160,20H91c-44.9,0-81.2,36.5-81,81.4C10.3,57,46.4,21,91,21h69c6.6,0,12,5.4,12,12v-1
		C172,25.4,166.6,20,160,20z"/>
	<path id="path78" class="st4" d="M64.9,70h44.2c4.9,0,8.9,4,8.9,8.9v-1c0-4.9-4-8.9-8.9-8.9H64.9C60,69,56,73,56,77.9v1
		C56,74,60,70,64.9,70z M118,89v1l18-18v-1L118,89z"/>
	<path id="path80" class="st2" d="M109.1,124H64.9c-4.9,0-8.9-4-8.9-8.9v1c0,4.9,4,8.9,8.9,8.9h44.2c4.9,0,8.9-4,8.9-8.9v-1
		C118,120,114,124,109.1,124z M118,105l18,18v-1l-18-18V105z"/>
	
		<linearGradient id="path87_1_" gradientUnits="userSpaceOnUse" x1="219.149" y1="-150.499" x2="280.472" y2="-211.822" gradientTransform="matrix(1 0 0 -1 -113 -45)">
		<stop  offset="0" style="stop-color:#1A237E;stop-opacity:0.2"/>
		<stop  offset="1" style="stop-color:#1A237E;stop-opacity:2.000000e-02"/>
	</linearGradient>
	<path id="path87" class="st7" d="M171.6,108.8L136,72v50l-18-18v11.1c0,4.9-4,8.9-8.9,8.9H64.9c-2.1,0-4-0.7-5.6-2l56.2,56.2
		C145.9,168.6,168.5,141.5,171.6,108.8L171.6,108.8z"/>
	<path id="path89" class="st8" d="M136,122l-18-18v11.1c0,4.9-4,8.9-8.9,8.9H64.9c-4.9,0-8.9-4-8.9-8.9V92.6h80L136,122L136,122z"/>
	<path id="path91" class="st6" d="M136,72l-18,18V78.9c0-4.9-4-8.9-8.9-8.9H64.9C60,70,56,74,56,78.9V97h80L136,72L136,72z"/>
</g>
</svg>
