<?xml version="1.0" encoding="utf-8"?>
<!-- Generator: Adobe Illustrator 23.0.0, SVG Export Plug-In . SVG Version: 6.00 Build 0)  -->
<svg version="1.1"
	 id="Layer_1" xmlns:cc="http://creativecommons.org/ns#" xmlns:dc="http://purl.org/dc/elements/1.1/" xmlns:rdf="http://www.w3.org/1999/02/22-rdf-syntax-ns#" xmlns:svg="http://www.w3.org/2000/svg"
	 xmlns="http://www.w3.org/2000/svg" xmlns:xlink="http://www.w3.org/1999/xlink" x="0px" y="0px" viewBox="0 0 467 192"
	 style="enable-background:new 0 0 467 192;" xml:space="preserve">
<style type="text/css">
	.st0{opacity:0.5;enable-background:new;}
</style>
<path id="XMLID_71_" class="st0" d="M25.7,80.6C25.7,51.7,50,28.1,79,28.1c16,0,27.4,6.3,36,14.5l-10.1,10.1
	C98.8,46.9,90.4,42.5,79,42.5c-21.1,0-37.6,17-37.6,38.1s16.5,38.1,37.6,38.1c13.7,0,21.5-5.5,26.5-10.5c4.1-4.1,6.8-10,7.8-18H79
	V75.9h48.3c0.5,2.6,0.8,5.6,0.8,9c0,10.8-2.9,24.1-12.4,33.5c-9.2,9.6-21,14.7-36.6,14.7C50,133,25.7,109.5,25.7,80.6z"/>
<path id="XMLID_68_" class="st0" d="M167,65.5c-18.7,0-33.9,14.2-33.9,33.8c0,19.5,15.2,33.8,33.9,33.8c18.7,0,33.9-14.3,33.9-33.8
	C200.9,79.7,185.7,65.5,167,65.5L167,65.5z M167,119.7c-10.2,0-19.1-8.4-19.1-20.5c0-12.2,8.8-20.5,19.1-20.5
	c10.2,0,19.1,8.3,19.1,20.5C186.1,111.3,177.2,119.7,167,119.7L167,119.7z"/>
<path id="XMLID_65_" class="st0" d="M241,65.5c-18.7,0-33.9,14.2-33.9,33.8c0,19.5,15.2,33.8,33.9,33.8s33.9-14.3,33.9-33.8
	C274.9,79.7,259.7,65.5,241,65.5z M241,119.7c-10.2,0-19.1-8.4-19.1-20.5c0-12.2,8.8-20.5,19.1-20.5s19.1,8.3,19.1,20.5
	C260.1,111.3,251.2,119.7,241,119.7z"/>
<path id="XMLID_62_" class="st0" d="M331.8,67.5V73h-0.5c-3.3-4-9.7-7.6-17.8-7.6c-16.9,0-32.4,14.8-32.4,33.9
	c0,18.9,15.5,33.7,32.4,33.7c8.1,0,14.5-3.6,17.8-7.7h0.5v4.9c0,12.9-6.9,19.8-18,19.8c-9.1,0-14.7-6.5-17-12l-12.9,5.4
	c3.7,9,13.6,20,30,20c17.4,0,32.1-10.2,32.1-35.2V67.5H331.8L331.8,67.5z M314.8,119.7c-10.2,0-18.8-8.6-18.8-20.4
	c0-11.9,8.6-20.6,18.8-20.6c10.1,0,18,8.7,18,20.6C332.9,111.2,324.9,119.7,314.8,119.7z"/>
<path id="XMLID_57_" class="st0" d="M356.2,31.7H371V131h-14.8V31.7z"/>
<path id="XMLID_53_" class="st0" d="M411.7,119.7c-7.6,0-12.9-3.5-16.4-10.2l45.2-18.7L439,87c-2.8-7.6-11.4-21.5-28.9-21.5
	c-17.4,0-31.9,13.7-31.9,33.8c0,18.9,14.3,33.8,33.5,33.8c15.5,0,24.4-9.5,28.2-15l-11.5-7.7C424.5,116,419.3,119.7,411.7,119.7
	L411.7,119.7z M410.6,78.5c5.9,0,10.9,2.9,12.5,7.2l-30.2,12.5C392.5,85.2,403,78.5,410.6,78.5z"/>
</svg>
