<?xml version="1.0" encoding="utf-8"?>
<!-- Generator: Adobe Illustrator 23.0.0, SVG Export Plug-In . SVG Version: 6.00 Build 0)  -->
<svg version="1.1" id="Capa_1" xmlns="http://www.w3.org/2000/svg" xmlns:xlink="http://www.w3.org/1999/xlink" x="0px" y="0px"
	 viewBox="0 0 442.46 203.99" style="enable-background:new 0 0 442.46 203.99;" xml:space="preserve">
<style type="text/css">
	.st0{fill:#568CF0;}
	.st1{fill:#F8C120;}
	.st2{fill:#EB574D;}
	.st3{fill:#3DAD61;}
	.st4{opacity:0.5;enable-background:new    ;}
</style>
<g>
	<circle class="st0" cx="71.33" cy="69.1" r="57.37"/>
	<circle class="st1" cx="158.17" cy="161.99" r="29.48"/>
	<circle class="st2" cx="154.48" cy="98.57" r="20.57"/>
	<circle class="st3" cx="188.51" cy="72.1" r="13.37"/>
	<g>
		<path id="XMLID_71_" class="st4" d="M243.34,69.09c0-13,10.93-23.61,23.97-23.61c7.19,0,12.32,2.83,16.19,6.52l-4.54,4.54
			c-2.74-2.61-6.52-4.59-11.65-4.59c-9.49,0-16.91,7.64-16.91,17.13c0,9.49,7.42,17.13,16.91,17.13c6.16,0,9.67-2.47,11.92-4.72
			c1.84-1.84,3.06-4.5,3.51-8.09h-15.42v-6.43h21.72c0.22,1.17,0.36,2.52,0.36,4.05c0,4.86-1.3,10.84-5.58,15.06
			c-4.14,4.32-9.44,6.61-16.46,6.61C254.27,92.65,243.34,82.08,243.34,69.09z"/>
		<path id="XMLID_68_" class="st4" d="M306.88,62.3c-8.41,0-15.24,6.39-15.24,15.2c0,8.77,6.83,15.2,15.24,15.2
			s15.24-6.43,15.24-15.2C322.12,68.68,315.29,62.3,306.88,62.3L306.88,62.3z M306.88,86.67c-4.59,0-8.59-3.78-8.59-9.22
			c0-5.49,3.96-9.22,8.59-9.22c4.59,0,8.59,3.73,8.59,9.22C315.47,82.89,311.47,86.67,306.88,86.67L306.88,86.67z"/>
		<path id="XMLID_65_" class="st4" d="M340.15,62.3c-8.41,0-15.24,6.39-15.24,15.2c0,8.77,6.83,15.2,15.24,15.2
			c8.41,0,15.24-6.43,15.24-15.2C355.4,68.68,348.56,62.3,340.15,62.3z M340.15,86.67c-4.59,0-8.59-3.78-8.59-9.22
			c0-5.49,3.96-9.22,8.59-9.22s8.59,3.73,8.59,9.22C348.74,82.89,344.74,86.67,340.15,86.67z"/>
		<path id="XMLID_62_" class="st4" d="M380.98,63.2v2.47h-0.22c-1.48-1.8-4.36-3.42-8-3.42c-7.6,0-14.57,6.66-14.57,15.24
			c0,8.5,6.97,15.15,14.57,15.15c3.64,0,6.52-1.62,8-3.46h0.22v2.2c0,5.8-3.1,8.9-8.09,8.9c-4.09,0-6.61-2.92-7.64-5.4l-5.8,2.43
			c1.66,4.05,6.12,8.99,13.49,8.99c7.82,0,14.43-4.59,14.43-15.83V63.2H380.98L380.98,63.2z M373.34,86.67
			c-4.59,0-8.45-3.87-8.45-9.17c0-5.35,3.87-9.26,8.45-9.26c4.54,0,8.09,3.91,8.09,9.26C381.48,82.85,377.88,86.67,373.34,86.67z"/>
		<path id="XMLID_57_" class="st4" d="M391.95,47.1h6.65v44.65h-6.65V47.1z"/>
		<path id="XMLID_53_" class="st4" d="M416.91,86.67c-3.42,0-5.8-1.57-7.37-4.59l20.32-8.41l-0.67-1.71
			c-1.26-3.42-5.13-9.67-13-9.67c-7.82,0-14.34,6.16-14.34,15.2c0,8.5,6.43,15.2,15.06,15.2c6.97,0,10.97-4.27,12.68-6.74
			l-5.17-3.46C422.67,85.01,420.33,86.67,416.91,86.67L416.91,86.67z M416.42,68.14c2.65,0,4.9,1.3,5.62,3.24L408.46,77
			C408.28,71.16,413,68.14,416.42,68.14z"/>
	</g>
	<g>
		<path id="path20" class="st4" d="M243.08,155.92v-41.15h12.58c6.33,0,11.36,1.89,15.18,5.7c3.77,3.82,5.7,8.76,5.7,14.87
			s-1.89,11.05-5.7,14.87c-3.77,3.82-8.85,5.7-15.18,5.7H243.08L243.08,155.92z M248.38,150.84h7.32c4.76,0,8.53-1.35,11.32-4.09
			c2.79-2.74,4.18-6.51,4.18-11.45c0-4.85-1.39-8.67-4.18-11.41c-2.78-2.74-6.56-4.13-11.32-4.13h-7.32V150.84z M306.64,155.92
			h-5.08v-3.91h-0.22c-0.81,1.35-2.02,2.47-3.68,3.41c-1.66,0.94-3.41,1.39-5.21,1.39c-3.55,0-6.2-1.08-8.04-3.23
			s-2.74-5.03-2.74-8.62v-17.25h5.3v16.4c0,5.26,2.34,7.86,6.96,7.86c2.2,0,3.95-0.9,5.35-2.65c1.39-1.75,2.07-3.77,2.07-6.11
			v-15.54h5.3V155.92z M315.26,131.12c2.74-2.87,6.2-4.27,10.42-4.27c4.22,0,7.68,1.44,10.42,4.27c2.74,2.87,4.09,6.42,4.09,10.74
			s-1.35,7.86-4.09,10.74c-2.74,2.87-6.2,4.27-10.42,4.27c-4.22,0-7.68-1.44-10.42-4.27c-2.74-2.87-4.09-6.42-4.09-10.74
			C311.17,137.55,312.52,133.95,315.26,131.12z M319.17,149.23c1.84,1.84,4,2.78,6.47,2.78s4.63-0.94,6.47-2.78
			c1.84-1.84,2.74-4.31,2.74-7.37s-0.9-5.53-2.74-7.37s-4-2.78-6.47-2.78s-4.63,0.94-6.47,2.78s-2.74,4.31-2.74,7.37
			S317.37,147.38,319.17,149.23z"/>
	</g>
</g>
</svg>
